G04 Layer: TopSilkscreenLayer*
G04 EasyEDA v6.5.46, 2025-04-01 09:14:14*
G04 1996200714a44a3eb265968e1dc72ee3,f9b916e08b964ccb92d809278d751d93,10*
G04 Gerber Generator version 0.2*
G04 Scale: 100 percent, Rotated: No, Reflected: No *
G04 Dimensions in millimeters *
G04 leading zeros omitted , absolute positions ,4 integer and 5 decimal *
%FSLAX45Y45*%
%MOMM*%

%ADD10C,0.1524*%
%ADD11C,0.2540*%

%LPD*%
D10*
X1828800Y2579115D02*
G01*
X1828800Y2470150D01*
X1828800Y2579115D02*
G01*
X1875536Y2579115D01*
X1891029Y2574036D01*
X1896363Y2568702D01*
X1901443Y2558287D01*
X1901443Y2547873D01*
X1896363Y2537460D01*
X1891029Y2532379D01*
X1875536Y2527300D01*
X1828800Y2527300D01*
X1865122Y2527300D02*
G01*
X1901443Y2470150D01*
X1935734Y2558287D02*
G01*
X1946147Y2563621D01*
X1961895Y2579115D01*
X1961895Y2470150D01*
X1828800Y1918715D02*
G01*
X1828800Y1809750D01*
X1828800Y1918715D02*
G01*
X1875536Y1918715D01*
X1891029Y1913636D01*
X1896363Y1908302D01*
X1901443Y1897887D01*
X1901443Y1887473D01*
X1896363Y1877060D01*
X1891029Y1871979D01*
X1875536Y1866900D01*
X1828800Y1866900D01*
X1865122Y1866900D02*
G01*
X1901443Y1809750D01*
X1941068Y1892807D02*
G01*
X1941068Y1897887D01*
X1946147Y1908302D01*
X1951481Y1913636D01*
X1961895Y1918715D01*
X1982470Y1918715D01*
X1992884Y1913636D01*
X1998218Y1908302D01*
X2003297Y1897887D01*
X2003297Y1887473D01*
X1998218Y1877060D01*
X1987804Y1861565D01*
X1935734Y1809750D01*
X2008631Y1809750D01*
X1828800Y1283715D02*
G01*
X1828800Y1174750D01*
X1828800Y1283715D02*
G01*
X1875536Y1283715D01*
X1891029Y1278636D01*
X1896363Y1273302D01*
X1901443Y1262887D01*
X1901443Y1252473D01*
X1896363Y1242060D01*
X1891029Y1236979D01*
X1875536Y1231900D01*
X1828800Y1231900D01*
X1865122Y1231900D02*
G01*
X1901443Y1174750D01*
X1946147Y1283715D02*
G01*
X2003297Y1283715D01*
X1972309Y1242060D01*
X1987804Y1242060D01*
X1998218Y1236979D01*
X2003297Y1231900D01*
X2008631Y1216152D01*
X2008631Y1205737D01*
X2003297Y1190244D01*
X1992884Y1179829D01*
X1977390Y1174750D01*
X1961895Y1174750D01*
X1946147Y1179829D01*
X1941068Y1184910D01*
X1935734Y1195323D01*
X1828800Y648715D02*
G01*
X1828800Y539750D01*
X1828800Y648715D02*
G01*
X1875536Y648715D01*
X1891029Y643636D01*
X1896363Y638302D01*
X1901443Y627887D01*
X1901443Y617473D01*
X1896363Y607060D01*
X1891029Y601979D01*
X1875536Y596900D01*
X1828800Y596900D01*
X1865122Y596900D02*
G01*
X1901443Y539750D01*
X1987804Y648715D02*
G01*
X1935734Y576071D01*
X2013711Y576071D01*
X1987804Y648715D02*
G01*
X1987804Y539750D01*
X3849115Y439420D02*
G01*
X3740150Y439420D01*
X3740150Y439420D02*
G01*
X3740150Y377189D01*
X3849115Y342900D02*
G01*
X3740150Y342900D01*
X3849115Y342900D02*
G01*
X3849115Y275336D01*
X3797300Y342900D02*
G01*
X3797300Y301244D01*
X3740150Y342900D02*
G01*
X3740150Y275336D01*
X3849115Y241045D02*
G01*
X3740150Y241045D01*
X3849115Y241045D02*
G01*
X3849115Y204470D01*
X3844036Y188976D01*
X3833622Y178562D01*
X3823208Y173481D01*
X3807459Y168147D01*
X3781552Y168147D01*
X3766058Y173481D01*
X3755643Y178562D01*
X3745229Y188976D01*
X3740150Y204470D01*
X3740150Y241045D01*
D11*
X1279199Y1984799D02*
G01*
X1279199Y2434800D01*
X1279199Y2434800D02*
G01*
X2429200Y2434800D01*
X2429200Y2434800D02*
G01*
X2429200Y1984799D01*
X2428240Y1983739D02*
G01*
X1280159Y1983739D01*
X1279199Y1324399D02*
G01*
X1279199Y1774400D01*
X1279199Y1774400D02*
G01*
X2429200Y1774400D01*
X2429200Y1774400D02*
G01*
X2429200Y1324399D01*
X2428240Y1323339D02*
G01*
X1280159Y1323339D01*
X1279199Y689399D02*
G01*
X1279199Y1139400D01*
X1279199Y1139400D02*
G01*
X2429200Y1139400D01*
X2429200Y1139400D02*
G01*
X2429200Y689399D01*
X2428240Y688339D02*
G01*
X1280159Y688339D01*
X1279199Y54399D02*
G01*
X1279199Y504400D01*
X1279199Y504400D02*
G01*
X2429200Y504400D01*
X2429200Y504400D02*
G01*
X2429200Y54399D01*
X2428240Y53339D02*
G01*
X1280159Y53339D01*
X3187700Y152400D02*
G01*
X3568700Y152400D01*
X3530600Y528320D02*
G01*
X3530600Y452120D01*
X3492500Y490220D02*
G01*
X3568700Y490220D01*
G75*
G01*
X3187700Y152400D02*
G02*
X3568700Y152400I190500J254000D01*
G75*
G01
X3632200Y406400D02*
G03X3632200Y406400I-254000J0D01*
M02*
